<svg width="36" height="37" viewBox="0 0 36 37" fill="none" xmlns="http://www.w3.org/2000/svg">
<path d="M23.3339 6.26971C23.6931 5.91041 24.2756 5.91041 24.6349 6.26971L29.8387 11.4743C30.198 11.8336 30.198 12.4161 29.8387 12.7754L14.2272 28.3891L7.72235 21.8834L23.3339 6.26971Z" fill="#262626"/>
<rect width="1.14998" height="9.19983" rx="0.574989" transform="matrix(0.707058 0.707155 -0.707058 0.707155 31.3008 3.99268)" fill="#262626"/>
<rect width="1.14998" height="9.19983" rx="0.574989" transform="matrix(0.707058 0.707155 -0.707058 0.707155 12.6016 22.6967)" fill="#262626"/>
<path d="M22.5584 11.515C22.6707 11.6272 22.6707 11.8093 22.5584 11.9216V11.9216C22.4462 12.0338 22.2642 12.0338 22.1519 11.9216L19.9159 9.68523L20.3224 9.27862L22.5584 11.515Z" fill="#FCFCFC"/>
<path d="M20.5311 13.548C20.6434 13.6603 20.6434 13.8424 20.5311 13.9546V13.9546C20.4188 14.0669 20.2368 14.0669 20.1245 13.9546L17.8885 11.7183L18.2951 11.3117L20.5311 13.548Z" fill="#FCFCFC"/>
<path d="M18.4998 15.581C18.6121 15.6933 18.6121 15.8753 18.4998 15.9876V15.9876C18.3876 16.0999 18.2056 16.0999 18.0933 15.9876L15.8573 13.7513L16.2638 13.3447L18.4998 15.581Z" fill="#FCFCFC"/>
<path d="M17.6834 18.8338C17.7957 18.9461 17.7957 19.1281 17.6834 19.2404V19.2404C17.5712 19.3527 17.3892 19.3527 17.2769 19.2404L13.8212 15.7843L14.2278 15.3776L17.6834 18.8338Z" fill="#FCFCFC"/>
<path d="M14.4295 19.647C14.5418 19.7593 14.5418 19.9414 14.4295 20.0536V20.0536C14.3173 20.1659 14.1353 20.1659 14.023 20.0536L11.787 17.8173L12.1935 17.4107L14.4295 19.647Z" fill="#FCFCFC"/>
<path d="M12.3983 21.6801C12.5106 21.7924 12.5106 21.9744 12.3983 22.0867V22.0867C12.286 22.199 12.104 22.199 11.9917 22.0867L9.75571 19.8504L10.1623 19.4438L12.3983 21.6801Z" fill="#FCFCFC"/>
<rect width="1.14998" height="9.19983" rx="0.574989" transform="matrix(0.707058 -0.707155 0.707058 0.707155 2.84766 26.7627)" fill="#262626"/>
<rect width="1.14998" height="12.6498" rx="0.574989" transform="matrix(0.707058 -0.707155 0.707058 0.707155 5.69141 21.4768)" fill="#262626"/>
</svg>
