<svg width="25" height="25" viewBox="0 0 25 25" fill="none" xmlns="http://www.w3.org/2000/svg">
<g id="Icon">
<path id="Vector (Stroke)" fill-rule="evenodd" clip-rule="evenodd" d="M3 6.07143C3 4.65127 4.15127 3.5 5.57143 3.5H6.74711C7.48457 3.5 8.1274 4.00191 8.30627 4.71735L9.25409 8.50865C9.41092 9.13597 9.17652 9.79618 8.65922 10.1842L7.5504 11.0158C7.43526 11.1021 7.41023 11.2286 7.44257 11.3169C8.41587 13.9738 10.5262 16.0841 13.1831 17.0574C13.2714 17.0898 13.3979 17.0647 13.4842 16.9496L14.3158 15.8408C14.7038 15.3235 15.364 15.0891 15.9913 15.2459L19.7826 16.1937C20.4981 16.3726 21 17.0154 21 17.7529V18.9286C21 20.3487 19.8487 21.5 18.4286 21.5H16.5C9.04416 21.5 3 15.4558 3 8V6.07143Z" fill="#CBEA7B"/>
</g>
</svg>
